<mxfile host="app.diagrams.net" modified="2020-08-06T08:29:57.864Z" agent="5.0 (Windows NT 10.0; WOW64) AppleWebKit/537.36 (KHTML, like Gecko) Chrome/83.0.4103.116 YaBrowser/20.7.3.101 Yowser/2.5 Safari/537.36" etag="FlEwaSBgCaQ5MYLsYjmm" version="13.6.0" type="github">
  <diagram id="8T6VYll39bNqHmTuR8T1" name="Page-1">
    <mxGraphModel dx="1374" dy="765" grid="1" gridSize="10" guides="1" tooltips="1" connect="1" arrows="1" fold="1" page="1" pageScale="1" pageWidth="827" pageHeight="1169" math="0" shadow="0">
      <root>
        <mxCell id="0" />
        <mxCell id="1" parent="0" />
        <mxCell id="srRNasskSA04C93AXl8h-2" value="Autodesk Revit" style="rounded=1;whiteSpace=wrap;html=1;" vertex="1" parent="1">
          <mxGeometry x="40" y="40" width="120" height="60" as="geometry" />
        </mxCell>
        <mxCell id="srRNasskSA04C93AXl8h-3" value="Aveva E3D" style="rounded=1;whiteSpace=wrap;html=1;" vertex="1" parent="1">
          <mxGeometry x="280" y="40" width="120" height="60" as="geometry" />
        </mxCell>
      </root>
    </mxGraphModel>
  </diagram>
</mxfile>
